<svg width="600" height="400" viewBox="0 0 600 400" xmlns="http://www.w3.org/2000/svg">
<defs>
<style>
.bg-primary { fill: #1f1f28; }
.bg-secondary { fill: #2a2a37; }
.fg-primary { fill: #dcd7ba; }
.fg-secondary { fill: #c8c093; }
.border { stroke: #54546d; }
.font-title { font-family: 'Courier New', monospace; font-size: 18px; font-weight: bold; }
.font-lang { font-family: 'Courier New', monospace; font-size: 14px; }
.font-percent { font-family: 'Courier New', monospace; font-size: 12px; }
.font-footer { font-family: 'Courier New', monospace; font-size: 10px; }
.csharp { fill: #76946a; }
.python { fill: #98bb6c; }
.lua { fill: #7fb4ca; }
.shell { fill: #6a9589; }
.javascript { fill: #dca561; }
.vimscript { fill: #dcd7ba; }
</style>
</defs>
<rect width="600" height="400" fill="#1f1f28" rx="12"/>
<rect x="8" y="8" width="584" height="384" fill="none" stroke="#54546d" stroke-width="2" rx="8"/>
<text x="300" y="40" text-anchor="middle" fill="#dcd7ba" class="font-title">Most Used Languages</text>
<g transform="translate(60, 80)">
<circle cx="8" cy="0" r="6" class="csharp"/>
<text x="25" y="4" class="fg-primary font-lang">C#</text>
<text x="460" y="4" class="fg-secondary font-percent">53.1%</text>
<rect x="25" y="12" width="400" height="8" fill="#54546d" rx="4"/>
<rect x="25" y="12" width="212.53098420817395" height="8" class="csharp" rx="4">
  <animate attributeName="width" from="0" to="212.53098420817395" dur="1.5s" begin="0.2s" fill="freeze"/>
</rect>
</g>
<g transform="translate(60, 120)">
<circle cx="8" cy="0" r="6" class="python"/>
<text x="25" y="4" class="fg-primary font-lang">Python</text>
<text x="460" y="4" class="fg-secondary font-percent">27.8%</text>
<rect x="25" y="12" width="400" height="8" fill="#54546d" rx="4"/>
<rect x="25" y="12" width="111.14921329223917" height="8" class="python" rx="4">
  <animate attributeName="width" from="0" to="111.14921329223917" dur="1.5s" begin="0.30000000000000004s" fill="freeze"/>
</rect>
</g>
<g transform="translate(60, 160)">
<circle cx="8" cy="0" r="6" class="lua"/>
<text x="25" y="4" class="fg-primary font-lang">Lua</text>
<text x="460" y="4" class="fg-secondary font-percent">13.4%</text>
<rect x="25" y="12" width="400" height="8" fill="#54546d" rx="4"/>
<rect x="25" y="12" width="53.56799446360028" height="8" class="lua" rx="4">
  <animate attributeName="width" from="0" to="53.56799446360028" dur="1.5s" begin="0.4s" fill="freeze"/>
</rect>
</g>
<g transform="translate(60, 200)">
<circle cx="8" cy="0" r="6" class="shell"/>
<text x="25" y="4" class="fg-primary font-lang">Shell</text>
<text x="460" y="4" class="fg-secondary font-percent">2.4%</text>
<rect x="25" y="12" width="400" height="8" fill="#54546d" rx="4"/>
<rect x="25" y="12" width="9.519014183697122" height="8" class="shell" rx="4">
  <animate attributeName="width" from="0" to="9.519014183697122" dur="1.5s" begin="0.5s" fill="freeze"/>
</rect>
</g>
<g transform="translate(60, 240)">
<circle cx="8" cy="0" r="6" class="javascript"/>
<text x="25" y="4" class="fg-primary font-lang">JavaScript</text>
<text x="460" y="4" class="fg-secondary font-percent">1.5%</text>
<rect x="25" y="12" width="400" height="8" fill="#54546d" rx="4"/>
<rect x="25" y="12" width="5.921463419503166" height="8" class="javascript" rx="4">
  <animate attributeName="width" from="0" to="5.921463419503166" dur="1.5s" begin="0.6000000000000001s" fill="freeze"/>
</rect>
</g>
<g transform="translate(60, 280)">
<circle cx="8" cy="0" r="6" class="vimscript"/>
<text x="25" y="4" class="fg-primary font-lang">Vim Script</text>
<text x="460" y="4" class="fg-secondary font-percent">0.6%</text>
<rect x="25" y="12" width="400" height="8" fill="#54546d" rx="4"/>
<rect x="25" y="12" width="2.2830994522380164" height="8" class="vimscript" rx="4">
  <animate attributeName="width" from="0" to="2.2830994522380164" dur="1.5s" begin="0.7s" fill="freeze"/>
</rect>
</g>
<line x1="60" y1="340" x2="540" y2="340" stroke="#54546d" stroke-width="1"/>
<text x="300" y="365" text-anchor="middle" class="fg-secondary font-footer">Based on repository analysis • github.com/mavantgarderc</text>
<text x="300" y="380" text-anchor="middle" class="fg-secondary font-footer" opacity="0.7">Kanagawa Theme • Updated automatically</text>
</svg>