<svg width="600" height="400" viewBox="0 0 600 400" xmlns="http://www.w3.org/2000/svg">
<defs>
<style>
.bg-primary { fill: #1f1f28; }
.bg-secondary { fill: #2a2a37; }
.fg-primary { fill: #dcd7ba; }
.fg-secondary { fill: #c8c093; }
.border { stroke: #54546d; }
.font-title { font-family: 'Courier New', monospace; font-size: 18px; font-weight: bold; }
.font-lang { font-family: 'Courier New', monospace; font-size: 14px; }
.font-percent { font-family: 'Courier New', monospace; font-size: 12px; }
.font-footer { font-family: 'Courier New', monospace; font-size: 10px; }
.csharp { fill: #76946a; }
.lua { fill: #dcd7ba; }
.python { fill: #98bb6c; }
.html { fill: #e82424; }
.shell { fill: #6a9589; }
.css { fill: #957fb8; }
</style>
</defs>
<rect width="600" height="400" fill="#1f1f28" rx="12"/>
<rect x="8" y="8" width="584" height="384" fill="none" stroke="#54546d" stroke-width="2" rx="8"/>
<text x="300" y="40" text-anchor="middle" fill="#dcd7ba" class="font-title">Most Used Languages</text>
<g transform="translate(60, 80)">
<circle cx="8" cy="0" r="6" class="csharp"/>
<text x="25" y="4" class="fg-primary font-lang">C#</text>
<text x="460" y="4" class="fg-secondary font-percent">64.0%</text>
<rect x="25" y="12" width="400" height="8" fill="#54546d" rx="4"/>
<rect x="25" y="12" width="255.86664085292173" height="8" class="csharp" rx="4">
  <animate attributeName="width" from="0" to="255.86664085292173" dur="1.5s" begin="0.2s" fill="freeze"/>
</rect>
</g>
<g transform="translate(60, 120)">
<circle cx="8" cy="0" r="6" class="lua"/>
<text x="25" y="4" class="fg-primary font-lang">Lua</text>
<text x="460" y="4" class="fg-secondary font-percent">15.9%</text>
<rect x="25" y="12" width="400" height="8" fill="#54546d" rx="4"/>
<rect x="25" y="12" width="63.42810983303403" height="8" class="lua" rx="4">
  <animate attributeName="width" from="0" to="63.42810983303403" dur="1.5s" begin="0.30000000000000004s" fill="freeze"/>
</rect>
</g>
<g transform="translate(60, 160)">
<circle cx="8" cy="0" r="6" class="python"/>
<text x="25" y="4" class="fg-primary font-lang">Python</text>
<text x="460" y="4" class="fg-secondary font-percent">7.7%</text>
<rect x="25" y="12" width="400" height="8" fill="#54546d" rx="4"/>
<rect x="25" y="12" width="30.724676382426182" height="8" class="python" rx="4">
  <animate attributeName="width" from="0" to="30.724676382426182" dur="1.5s" begin="0.4s" fill="freeze"/>
</rect>
</g>
<g transform="translate(60, 200)">
<circle cx="8" cy="0" r="6" class="html"/>
<text x="25" y="4" class="fg-primary font-lang">HTML</text>
<text x="460" y="4" class="fg-secondary font-percent">3.7%</text>
<rect x="25" y="12" width="400" height="8" fill="#54546d" rx="4"/>
<rect x="25" y="12" width="14.75709488554052" height="8" class="html" rx="4">
  <animate attributeName="width" from="0" to="14.75709488554052" dur="1.5s" begin="0.5s" fill="freeze"/>
</rect>
</g>
<g transform="translate(60, 240)">
<circle cx="8" cy="0" r="6" class="shell"/>
<text x="25" y="4" class="fg-primary font-lang">Shell</text>
<text x="460" y="4" class="fg-secondary font-percent">2.9%</text>
<rect x="25" y="12" width="400" height="8" fill="#54546d" rx="4"/>
<rect x="25" y="12" width="11.451689353833007" height="8" class="shell" rx="4">
  <animate attributeName="width" from="0" to="11.451689353833007" dur="1.5s" begin="0.6000000000000001s" fill="freeze"/>
</rect>
</g>
<g transform="translate(60, 280)">
<circle cx="8" cy="0" r="6" class="css"/>
<text x="25" y="4" class="fg-primary font-lang">CSS</text>
<text x="460" y="4" class="fg-secondary font-percent">1.8%</text>
<rect x="25" y="12" width="400" height="8" fill="#54546d" rx="4"/>
<rect x="25" y="12" width="7.12913325900755" height="8" class="css" rx="4">
  <animate attributeName="width" from="0" to="7.12913325900755" dur="1.5s" begin="0.7s" fill="freeze"/>
</rect>
</g>
<line x1="60" y1="340" x2="540" y2="340" stroke="#54546d" stroke-width="1"/>
<text x="300" y="365" text-anchor="middle" class="fg-secondary font-footer">Based on repository analysis • github.com/mavantgarderc</text>
<text x="300" y="380" text-anchor="middle" class="fg-secondary font-footer" opacity="0.7">Kanagawa Theme • Updated automatically</text>
</svg>